<svg width="20" height="20" viewBox="0 0 20 20" fill="none" xmlns="http://www.w3.org/2000/svg">
<path fill-rule="evenodd" clip-rule="evenodd" d="M2.84775 4.52261L13.1136 15.6008H2.84775V4.52261ZM0 1.44995L1.05775 2.59139C0.99009 2.8022 0.95102 3.02638 0.95102 3.26084L0.94149 15.6008C0.94149 16.732 1.79912 17.6575 2.84734 17.6575H15.0191L17.1908 20L18.5334 18.5511L1.34362 0L0 1.44995ZM18.0942 3.26076H10.4708L8.56495 1.2041H5.14014L7.04599 3.26076H7.77402L9.67987 5.31742H18.0942V15.1832L19.6151 16.8244C19.8533 16.482 20.0001 16.0604 20.0001 15.6007V5.31742C20.0001 4.18626 19.1424 3.26076 18.0942 3.26076Z" fill="#999999"/>
</svg>
